<?xml version="1.0" standalone="no"?>
<!DOCTYPE svg PUBLIC "-//W3C//DTD SVG 20010904//EN"
 "http://www.w3.org/TR/2001/REC-SVG-20010904/DTD/svg10.dtd">
<svg version="1.0" xmlns="http://www.w3.org/2000/svg"
 width="181.000000pt" height="147.000000pt" viewBox="0 0 181.000000 147.000000"
 preserveAspectRatio="xMidYMid meet">

<g transform="translate(0.000000,147.000000) scale(0.100000,-0.100000)"
fill="#000000" stroke="none">
<path d="M950 1231 c-77 -16 -121 -53 -136 -116 -4 -16 -15 -41 -26 -54 -22
-29 -23 -59 -3 -88 14 -20 13 -21 -23 -26 -28 -3 -42 1 -56 16 -16 16 -28 18
-75 13 -31 -3 -82 -7 -114 -8 -44 -2 -62 -8 -73 -22 -12 -17 -12 -23 1 -43 15
-22 12 -32 -40 -159 -30 -74 -55 -136 -55 -137 0 -1 25 0 55 1 48 3 55 1 55
-15 1 -33 47 -132 85 -182 87 -114 211 -174 360 -173 138 0 232 41 331 142 70
70 124 196 124 287 0 28 -3 33 -24 33 -22 0 -19 5 31 52 30 29 64 66 75 81
l20 28 -22 24 -22 24 -24 -27 -24 -27 15 37 15 36 -78 -5 c-42 -3 -85 -10 -94
-15 -14 -7 -18 -5 -18 10 0 14 9 21 32 26 17 3 37 11 45 17 19 17 16 73 -6 93
-10 9 -22 31 -25 49 -3 17 -16 41 -28 54 -23 24 -91 48 -108 38 -5 -3 -22 3
-37 14 -33 23 -85 31 -133 22z m132 -48 c21 -19 23 -44 6 -61 -9 -9 -9 -12 1
-12 7 0 18 14 24 30 9 24 17 30 40 30 34 0 90 -51 85 -77 -2 -9 7 -27 19 -40
28 -27 29 -45 3 -68 -18 -16 -26 -17 -75 -6 -58 13 -77 28 -54 42 12 7 11 9
-1 9 -8 0 -28 -9 -45 -20 -43 -28 -72 -25 -107 12 l-31 33 7 -32 c7 -30 5 -33
-31 -48 -21 -9 -53 -15 -73 -13 -70 6 -74 94 -5 124 16 7 24 13 18 14 -20 0
-15 26 10 55 45 53 164 69 209 28z m77 -214 c31 -11 45 -48 19 -50 -7 0 -63
-1 -125 -1 -62 -1 -110 -5 -107 -9 3 -5 -3 -6 -12 -2 -13 5 -14 8 -4 11 9 3 5
9 -11 17 -23 13 -22 14 26 28 59 18 169 21 214 6z m-475 -35 c3 -9 -3 -34 -14
-57 -16 -34 -18 -36 -13 -12 13 61 10 70 -27 76 l-35 6 41 2 c30 1 44 -4 48
-15z m-124 -13 c0 -21 -96 -261 -111 -276 -16 -16 -10 3 45 140 49 121 53 136
38 145 -15 8 -14 9 6 10 15 0 22 -6 22 -19z m302 -5 c15 -22 8 -36 -17 -36
-14 0 -33 -9 -42 -20 -18 -21 -43 -27 -43 -10 0 6 6 10 13 10 23 0 50 37 44
60 -5 18 -2 20 16 14 12 -4 25 -12 29 -18z m-74 -8 c-6 -18 -25 -21 -25 -3 0
8 7 15 15 15 7 0 12 -5 10 -12z m479 -30 c-9 -7 -28 -42 -41 -78 -17 -43 -25
-57 -25 -40 -1 39 45 130 65 130 17 0 17 -1 1 -12z m59 -53 c-19 -60 -36 -83
-36 -51 0 20 41 116 50 116 4 0 -2 -29 -14 -65z m-186 37 c0 -12 -79 -87 -85
-81 -3 3 9 18 25 34 17 16 30 35 30 42 0 7 7 13 15 13 8 0 15 -4 15 -8z m-210
-42 c-11 -16 -35 -39 -53 -52 -32 -22 -32 -22 6 20 21 24 35 47 32 52 -4 6 3
10 15 10 l21 0 -21 -30z m-207 -64 c-10 -31 -21 -56 -25 -56 -12 0 -10 17 7
57 8 19 15 45 15 56 0 15 3 18 11 10 8 -8 6 -26 -8 -67z m425 52 c-8 -12 -21
-24 -29 -26 -8 -3 -3 7 10 22 30 32 39 34 19 4z m-528 -98 c0 -5 -5 -10 -11
-10 -5 0 -7 5 -4 10 3 6 8 10 11 10 2 0 4 -4 4 -10z m-80 -63 c0 -12 9 -47 21
-77 12 -30 23 -65 26 -78 5 -21 28 -43 87 -85 29 -20 34 -48 11 -67 -12 -10
-24 -3 -70 41 -104 98 -167 289 -95 289 14 0 20 -7 20 -23z m80 16 c0 -3 -8
-15 -17 -25 -13 -15 -15 -23 -7 -36 22 -34 74 -21 74 18 0 11 10 20 30 24 38
7 45 5 43 -14 -3 -23 16 -50 36 -50 25 0 44 25 37 48 -5 15 -1 21 20 26 14 4
28 6 30 4 1 -2 -31 -63 -73 -135 l-76 -132 -38 29 c-59 48 -101 123 -123 223
-6 25 -4 27 29 27 19 0 35 -3 35 -7z m629 -36 c-15 -81 -64 -165 -122 -210
l-35 -26 -79 139 -80 138 162 2 163 1 -9 -44z m81 30 c0 -31 -33 -135 -57
-179 -14 -26 -51 -72 -81 -100 l-55 -52 -18 23 c-21 25 -17 41 9 41 23 0 91
82 119 143 13 28 23 68 23 93 0 42 1 44 30 44 18 0 30 -5 30 -13z m-346 -137
c42 -71 76 -133 76 -138 0 -21 -68 -37 -155 -37 -88 0 -155 16 -155 37 0 6 15
36 34 67 18 31 52 89 75 129 23 39 43 72 45 72 2 0 38 -58 80 -130z m-201
-180 c33 -18 52 -20 130 -17 62 3 103 10 126 22 33 17 35 17 48 -1 20 -27 12
-37 -48 -58 -70 -24 -186 -25 -261 -3 -65 20 -74 28 -56 57 16 25 15 25 61 0z"/>
<path d="M920 946 c0 -2 9 -6 20 -9 11 -3 18 -1 14 4 -5 9 -34 13 -34 5z"/>
<path d="M1148 923 c7 -3 16 -2 19 1 4 3 -2 6 -13 5 -11 0 -14 -3 -6 -6z"/>
<path d="M705 580 c3 -5 10 -10 16 -10 5 0 9 5 9 10 0 6 -7 10 -16 10 -8 0
-12 -4 -9 -10z"/>
<path d="M630 555 c0 -9 5 -15 11 -13 6 2 11 8 11 13 0 5 -5 11 -11 13 -6 2
-11 -4 -11 -13z"/>
<path d="M760 544 c0 -8 5 -12 10 -9 6 3 10 10 10 16 0 5 -4 9 -10 9 -5 0 -10
-7 -10 -16z"/>
<path d="M650 515 c-20 -25 -8 -50 25 -50 21 0 31 5 33 18 4 21 -14 47 -33 47
-7 0 -18 -7 -25 -15z"/>
<path d="M1157 649 c-24 -14 -22 -56 3 -64 25 -8 50 10 50 36 0 24 -30 40 -53
28z"/>
<path d="M980 635 c0 -8 5 -15 10 -15 6 0 10 7 10 15 0 8 -4 15 -10 15 -5 0
-10 -7 -10 -15z"/>
<path d="M1029 634 c-16 -20 -1 -48 29 -52 27 -4 49 33 31 54 -15 19 -43 18
-60 -2z"/>
<path d="M1116 573 c-11 -11 -6 -23 9 -23 8 0 15 4 15 9 0 13 -16 22 -24 14z"/>
<path d="M1036 553 c-11 -11 -6 -23 9 -23 8 0 15 4 15 9 0 13 -16 22 -24 14z"/>
<path d="M1092 528 c-18 -18 -14 -46 7 -58 29 -15 51 -2 51 30 0 36 -34 52
-58 28z"/>
<path d="M890 600 c0 -5 7 -10 15 -10 8 0 15 5 15 10 0 6 -7 10 -15 10 -8 0
-15 -4 -15 -10z"/>
<path d="M874 556 c-11 -28 1 -51 27 -54 29 -3 44 18 34 49 -8 23 -53 26 -61
5z"/>
<path d="M827 484 c-8 -8 1 -24 14 -24 5 0 9 7 9 15 0 15 -12 20 -23 9z"/>
<path d="M940 445 c-6 -8 -10 -22 -8 -32 4 -25 48 -30 65 -8 26 37 -27 76 -57
40z"/>
<path d="M822 431 c-8 -4 -12 -19 -10 -32 2 -19 9 -24 33 -24 33 0 45 25 25
50 -14 17 -29 19 -48 6z"/>
<path d="M910 381 c0 -6 5 -13 10 -16 6 -3 10 1 10 9 0 9 -4 16 -10 16 -5 0
-10 -4 -10 -9z"/>
</g>
</svg>
